<?xml version="1.0" encoding="utf-8" standalone="no"?>
<!DOCTYPE svg PUBLIC "-//W3C//DTD SVG 1.1//EN"
  "http://www.w3.org/Graphics/SVG/1.1/DTD/svg11.dtd">
<svg xmlns:xlink="http://www.w3.org/1999/xlink" width="437.405937pt" height="261.772188pt" viewBox="0 0 437.405937 261.772188" xmlns="http://www.w3.org/2000/svg" version="1.1">
 <metadata>
  <rdf:RDF xmlns:dc="http://purl.org/dc/elements/1.1/" xmlns:cc="http://creativecommons.org/ns#" xmlns:rdf="http://www.w3.org/1999/02/22-rdf-syntax-ns#">
   <cc:Work>
    <dc:type rdf:resource="http://purl.org/dc/dcmitype/StillImage"/>
    <dc:date>2026-01-06T17:45:40.354162</dc:date>
    <dc:format>image/svg+xml</dc:format>
    <dc:creator>
     <cc:Agent>
      <dc:title>Matplotlib v3.9.4, https://matplotlib.org/</dc:title>
     </cc:Agent>
    </dc:creator>
   </cc:Work>
  </rdf:RDF>
 </metadata>
 <defs>
  <style type="text/css">*{stroke-linejoin: round; stroke-linecap: butt}</style>
 </defs>
 <g id="figure_1">
  <g id="patch_1">
   <path d="M 0 261.772188 
L 437.405937 261.772188 
L 437.405937 0 
L 0 0 
z
" style="fill: #ffffff"/>
  </g>
  <g id="axes_1">
   <g id="patch_2">
    <path d="M 52.876563 228.96 
L 387.676563 228.96 
L 387.676563 7.2 
L 52.876563 7.2 
z
" style="fill: #ffffff"/>
   </g>
   <g id="PolyCollection_1"/>
   <g id="matplotlib.axis_1">
    <g id="xtick_1">
     <g id="line2d_1">
      <path d="M 68.094744 228.96 
L 68.094744 7.2 
" clip-path="url(#pb06fd4ca77)" style="fill: none; stroke: #b0b0b0; stroke-width: 0.8; stroke-linecap: square"/>
     </g>
     <g id="line2d_2">
      <defs>
       <path id="md99a742ba4" d="M 0 0 
L 0 3.5 
" style="stroke: #000000; stroke-width: 0.8"/>
      </defs>
      <g>
       <use xlink:href="#md99a742ba4" x="68.094744" y="228.96" style="stroke: #000000; stroke-width: 0.8"/>
      </g>
     </g>
     <g id="text_1">
      <!-- 2 -->
      <g transform="translate(65.396151 241.620156) scale(0.09 -0.09)">
       <defs>
        <path id="Q-04LITE-Regular-32" d="M 2816 4031 
L 3263 4031 
L 3263 3138 
L 2816 3138 
L 2816 4031 
z
M 575 0 
L 575 1344 
L 1025 1344 
L 1025 447 
L 3263 447 
L 3263 0 
L 575 0 
z
M 575 3584 
L 575 4031 
L 1025 4031 
L 1025 3584 
L 575 3584 
z
M 1025 1344 
L 1025 1791 
L 1472 1791 
L 1472 1344 
L 1025 1344 
z
M 1025 4031 
L 1025 4481 
L 2816 4481 
L 2816 4031 
L 1025 4031 
z
M 1472 1791 
L 1472 2241 
L 1919 2241 
L 1919 1791 
L 1472 1791 
z
M 1919 2241 
L 1919 2688 
L 2369 2688 
L 2369 2241 
L 1919 2241 
z
M 2369 2688 
L 2369 3138 
L 2816 3138 
L 2816 2688 
L 2369 2688 
z
" transform="scale(0.015625)"/>
       </defs>
       <use xlink:href="#Q-04LITE-Regular-32"/>
      </g>
     </g>
    </g>
    <g id="xtick_2">
     <g id="line2d_3">
      <path d="M 91.507332 228.96 
L 91.507332 7.2 
" clip-path="url(#pb06fd4ca77)" style="fill: none; stroke: #b0b0b0; stroke-width: 0.8; stroke-linecap: square"/>
     </g>
     <g id="line2d_4">
      <g>
       <use xlink:href="#md99a742ba4" x="91.507332" y="228.96" style="stroke: #000000; stroke-width: 0.8"/>
      </g>
     </g>
     <g id="text_2">
      <!-- 3 -->
      <g transform="translate(88.808738 241.620156) scale(0.09 -0.09)">
       <defs>
        <path id="Q-04LITE-Regular-33" d="M 1025 4031 
L 1025 4481 
L 2816 4481 
L 2816 4031 
L 1025 4031 
z
M 575 447 
L 575 897 
L 1025 897 
L 1025 447 
L 575 447 
z
M 575 3584 
L 575 4031 
L 1025 4031 
L 1025 3584 
L 575 3584 
z
M 1025 0 
L 1025 447 
L 2816 447 
L 2816 0 
L 1025 0 
z
M 1025 2241 
L 1025 2688 
L 2816 2688 
L 2816 2241 
L 1025 2241 
z
M 2816 447 
L 2816 2241 
L 3263 2241 
L 3263 447 
L 2816 447 
z
M 2816 2688 
L 2816 4031 
L 3263 4031 
L 3263 2688 
L 2816 2688 
z
" transform="scale(0.015625)"/>
       </defs>
       <use xlink:href="#Q-04LITE-Regular-33"/>
      </g>
     </g>
    </g>
    <g id="xtick_3">
     <g id="line2d_5">
      <path d="M 114.919919 228.96 
L 114.919919 7.2 
" clip-path="url(#pb06fd4ca77)" style="fill: none; stroke: #b0b0b0; stroke-width: 0.8; stroke-linecap: square"/>
     </g>
     <g id="line2d_6">
      <g>
       <use xlink:href="#md99a742ba4" x="114.919919" y="228.96" style="stroke: #000000; stroke-width: 0.8"/>
      </g>
     </g>
     <g id="text_3">
      <!-- 4 -->
      <g transform="translate(112.221325 241.620156) scale(0.09 -0.09)">
       <defs>
        <path id="Q-04LITE-Regular-34" d="M 2369 4031 
L 1919 4031 
L 1919 4481 
L 2816 4481 
L 2816 2241 
L 3263 2241 
L 3263 1791 
L 2816 1791 
L 2816 0 
L 2369 0 
L 2369 1791 
L 575 1791 
L 575 3138 
L 1025 3138 
L 1025 2241 
L 2369 2241 
L 2369 4031 
z
M 1025 3138 
L 1025 3584 
L 1472 3584 
L 1472 3138 
L 1025 3138 
z
M 1472 3584 
L 1472 4031 
L 1919 4031 
L 1919 3584 
L 1472 3584 
z
" transform="scale(0.015625)"/>
       </defs>
       <use xlink:href="#Q-04LITE-Regular-34"/>
      </g>
     </g>
    </g>
    <g id="xtick_4">
     <g id="line2d_7">
      <path d="M 138.332507 228.96 
L 138.332507 7.2 
" clip-path="url(#pb06fd4ca77)" style="fill: none; stroke: #b0b0b0; stroke-width: 0.8; stroke-linecap: square"/>
     </g>
     <g id="line2d_8">
      <g>
       <use xlink:href="#md99a742ba4" x="138.332507" y="228.96" style="stroke: #000000; stroke-width: 0.8"/>
      </g>
     </g>
     <g id="text_4">
      <!-- 5 -->
      <g transform="translate(135.633913 241.620156) scale(0.09 -0.09)">
       <defs>
        <path id="Q-04LITE-Regular-35" d="M 1025 4031 
L 1025 2688 
L 2816 2688 
L 2816 2241 
L 575 2241 
L 575 4481 
L 3263 4481 
L 3263 4031 
L 1025 4031 
z
M 575 447 
L 575 897 
L 1025 897 
L 1025 447 
L 575 447 
z
M 1025 0 
L 1025 447 
L 2816 447 
L 2816 0 
L 1025 0 
z
M 2816 447 
L 2816 2241 
L 3263 2241 
L 3263 447 
L 2816 447 
z
" transform="scale(0.015625)"/>
       </defs>
       <use xlink:href="#Q-04LITE-Regular-35"/>
      </g>
     </g>
    </g>
    <g id="xtick_5">
     <g id="line2d_9">
      <path d="M 161.745094 228.96 
L 161.745094 7.2 
" clip-path="url(#pb06fd4ca77)" style="fill: none; stroke: #b0b0b0; stroke-width: 0.8; stroke-linecap: square"/>
     </g>
     <g id="line2d_10">
      <g>
       <use xlink:href="#md99a742ba4" x="161.745094" y="228.96" style="stroke: #000000; stroke-width: 0.8"/>
      </g>
     </g>
     <g id="text_5">
      <!-- 6 -->
      <g transform="translate(159.0465 241.620156) scale(0.09 -0.09)">
       <defs>
        <path id="Q-04LITE-Regular-36" d="M 2816 3584 
L 2816 4031 
L 3263 4031 
L 3263 3584 
L 2816 3584 
z
M 575 447 
L 575 4031 
L 1025 4031 
L 1025 2688 
L 2816 2688 
L 2816 2241 
L 1025 2241 
L 1025 447 
L 575 447 
z
M 1025 0 
L 1025 447 
L 2816 447 
L 2816 0 
L 1025 0 
z
M 1025 4031 
L 1025 4481 
L 2816 4481 
L 2816 4031 
L 1025 4031 
z
M 2816 447 
L 2816 2241 
L 3263 2241 
L 3263 447 
L 2816 447 
z
" transform="scale(0.015625)"/>
       </defs>
       <use xlink:href="#Q-04LITE-Regular-36"/>
      </g>
     </g>
    </g>
    <g id="xtick_6">
     <g id="line2d_11">
      <path d="M 185.157681 228.96 
L 185.157681 7.2 
" clip-path="url(#pb06fd4ca77)" style="fill: none; stroke: #b0b0b0; stroke-width: 0.8; stroke-linecap: square"/>
     </g>
     <g id="line2d_12">
      <g>
       <use xlink:href="#md99a742ba4" x="185.157681" y="228.96" style="stroke: #000000; stroke-width: 0.8"/>
      </g>
     </g>
     <g id="text_6">
      <!-- 7 -->
      <g transform="translate(182.459088 241.620156) scale(0.09 -0.09)">
       <defs>
        <path id="Q-04LITE-Regular-37" d="M 2816 4031 
L 575 4031 
L 575 4481 
L 3263 4481 
L 3263 3584 
L 2816 3584 
L 2816 4031 
z
M 575 0 
L 575 897 
L 1025 897 
L 1025 0 
L 575 0 
z
M 1025 897 
L 1025 1791 
L 1472 1791 
L 1472 897 
L 1025 897 
z
M 1472 1791 
L 1472 2241 
L 1919 2241 
L 1919 1791 
L 1472 1791 
z
M 1919 2241 
L 1919 2688 
L 2369 2688 
L 2369 2241 
L 1919 2241 
z
M 2369 2688 
L 2369 3584 
L 2816 3584 
L 2816 2688 
L 2369 2688 
z
" transform="scale(0.015625)"/>
       </defs>
       <use xlink:href="#Q-04LITE-Regular-37"/>
      </g>
     </g>
    </g>
    <g id="xtick_7">
     <g id="line2d_13">
      <path d="M 208.570269 228.96 
L 208.570269 7.2 
" clip-path="url(#pb06fd4ca77)" style="fill: none; stroke: #b0b0b0; stroke-width: 0.8; stroke-linecap: square"/>
     </g>
     <g id="line2d_14">
      <g>
       <use xlink:href="#md99a742ba4" x="208.570269" y="228.96" style="stroke: #000000; stroke-width: 0.8"/>
      </g>
     </g>
     <g id="text_7">
      <!-- 8 -->
      <g transform="translate(205.871675 241.620156) scale(0.09 -0.09)">
       <defs>
        <path id="Q-04LITE-Regular-38" d="M 2816 4031 
L 3263 4031 
L 3263 2688 
L 2816 2688 
L 2816 4031 
z
M 575 447 
L 575 2241 
L 1025 2241 
L 1025 447 
L 575 447 
z
M 575 2688 
L 575 4031 
L 1025 4031 
L 1025 2688 
L 575 2688 
z
M 1025 0 
L 1025 447 
L 2816 447 
L 2816 0 
L 1025 0 
z
M 1025 2241 
L 1025 2688 
L 2816 2688 
L 2816 2241 
L 1025 2241 
z
M 1025 4031 
L 1025 4481 
L 2816 4481 
L 2816 4031 
L 1025 4031 
z
M 2816 447 
L 2816 2241 
L 3263 2241 
L 3263 447 
L 2816 447 
z
" transform="scale(0.015625)"/>
       </defs>
       <use xlink:href="#Q-04LITE-Regular-38"/>
      </g>
     </g>
    </g>
    <g id="xtick_8">
     <g id="line2d_15">
      <path d="M 231.982856 228.96 
L 231.982856 7.2 
" clip-path="url(#pb06fd4ca77)" style="fill: none; stroke: #b0b0b0; stroke-width: 0.8; stroke-linecap: square"/>
     </g>
     <g id="line2d_16">
      <g>
       <use xlink:href="#md99a742ba4" x="231.982856" y="228.96" style="stroke: #000000; stroke-width: 0.8"/>
      </g>
     </g>
     <g id="text_8">
      <!-- 9 -->
      <g transform="translate(229.284262 241.620156) scale(0.09 -0.09)">
       <defs>
        <path id="Q-04LITE-Regular-39" d="M 2816 4031 
L 3263 4031 
L 3263 447 
L 2816 447 
L 2816 2241 
L 1025 2241 
L 1025 2688 
L 2816 2688 
L 2816 4031 
z
M 575 447 
L 575 897 
L 1025 897 
L 1025 447 
L 575 447 
z
M 575 2688 
L 575 4031 
L 1025 4031 
L 1025 2688 
L 575 2688 
z
M 1025 0 
L 1025 447 
L 2816 447 
L 2816 0 
L 1025 0 
z
M 1025 4031 
L 1025 4481 
L 2816 4481 
L 2816 4031 
L 1025 4031 
z
" transform="scale(0.015625)"/>
       </defs>
       <use xlink:href="#Q-04LITE-Regular-39"/>
      </g>
     </g>
    </g>
    <g id="xtick_9">
     <g id="line2d_17">
      <path d="M 255.395444 228.96 
L 255.395444 7.2 
" clip-path="url(#pb06fd4ca77)" style="fill: none; stroke: #b0b0b0; stroke-width: 0.8; stroke-linecap: square"/>
     </g>
     <g id="line2d_18">
      <g>
       <use xlink:href="#md99a742ba4" x="255.395444" y="228.96" style="stroke: #000000; stroke-width: 0.8"/>
      </g>
     </g>
     <g id="text_9">
      <!-- 10 -->
      <g transform="translate(250.178959 241.620156) scale(0.09 -0.09)">
       <defs>
        <path id="Q-04LITE-Regular-31" d="M 1569 4031 
L 1119 4031 
L 1119 4481 
L 2016 4481 
L 2016 447 
L 3138 447 
L 3138 0 
L 447 0 
L 447 447 
L 1569 447 
L 1569 4031 
z
M 672 3584 
L 672 4031 
L 1119 4031 
L 1119 3584 
L 672 3584 
z
" transform="scale(0.015625)"/>
        <path id="Q-04LITE-Regular-30" d="M 1025 4031 
L 1025 4481 
L 2816 4481 
L 2816 4031 
L 1025 4031 
z
M 575 447 
L 575 4031 
L 1025 4031 
L 1025 1791 
L 1472 1791 
L 1472 1344 
L 1025 1344 
L 1025 447 
L 575 447 
z
M 1025 0 
L 1025 447 
L 2816 447 
L 2816 0 
L 1025 0 
z
M 1472 1791 
L 1472 2241 
L 1919 2241 
L 1919 1791 
L 1472 1791 
z
M 1919 2241 
L 1919 2688 
L 2369 2688 
L 2369 2241 
L 1919 2241 
z
M 2369 2688 
L 2369 3138 
L 2816 3138 
L 2816 4031 
L 3263 4031 
L 3263 447 
L 2816 447 
L 2816 2688 
L 2369 2688 
z
" transform="scale(0.015625)"/>
       </defs>
       <use xlink:href="#Q-04LITE-Regular-31"/>
       <use xlink:href="#Q-04LITE-Regular-30" x="55.957031"/>
      </g>
     </g>
    </g>
    <g id="xtick_10">
     <g id="line2d_19">
      <path d="M 278.808031 228.96 
L 278.808031 7.2 
" clip-path="url(#pb06fd4ca77)" style="fill: none; stroke: #b0b0b0; stroke-width: 0.8; stroke-linecap: square"/>
     </g>
     <g id="line2d_20">
      <g>
       <use xlink:href="#md99a742ba4" x="278.808031" y="228.96" style="stroke: #000000; stroke-width: 0.8"/>
      </g>
     </g>
     <g id="text_10">
      <!-- 11 -->
      <g transform="translate(273.77225 241.620156) scale(0.09 -0.09)">
       <use xlink:href="#Q-04LITE-Regular-31"/>
       <use xlink:href="#Q-04LITE-Regular-31" x="55.957031"/>
      </g>
     </g>
    </g>
    <g id="xtick_11">
     <g id="line2d_21">
      <path d="M 302.220618 228.96 
L 302.220618 7.2 
" clip-path="url(#pb06fd4ca77)" style="fill: none; stroke: #b0b0b0; stroke-width: 0.8; stroke-linecap: square"/>
     </g>
     <g id="line2d_22">
      <g>
       <use xlink:href="#md99a742ba4" x="302.220618" y="228.96" style="stroke: #000000; stroke-width: 0.8"/>
      </g>
     </g>
     <g id="text_11">
      <!-- 12 -->
      <g transform="translate(297.004134 241.620156) scale(0.09 -0.09)">
       <use xlink:href="#Q-04LITE-Regular-31"/>
       <use xlink:href="#Q-04LITE-Regular-32" x="55.957031"/>
      </g>
     </g>
    </g>
    <g id="xtick_12">
     <g id="line2d_23">
      <path d="M 325.633206 228.96 
L 325.633206 7.2 
" clip-path="url(#pb06fd4ca77)" style="fill: none; stroke: #b0b0b0; stroke-width: 0.8; stroke-linecap: square"/>
     </g>
     <g id="line2d_24">
      <g>
       <use xlink:href="#md99a742ba4" x="325.633206" y="228.96" style="stroke: #000000; stroke-width: 0.8"/>
      </g>
     </g>
     <g id="text_12">
      <!-- 13 -->
      <g transform="translate(320.416721 241.620156) scale(0.09 -0.09)">
       <use xlink:href="#Q-04LITE-Regular-31"/>
       <use xlink:href="#Q-04LITE-Regular-33" x="55.957031"/>
      </g>
     </g>
    </g>
    <g id="xtick_13">
     <g id="line2d_25">
      <path d="M 349.045793 228.96 
L 349.045793 7.2 
" clip-path="url(#pb06fd4ca77)" style="fill: none; stroke: #b0b0b0; stroke-width: 0.8; stroke-linecap: square"/>
     </g>
     <g id="line2d_26">
      <g>
       <use xlink:href="#md99a742ba4" x="349.045793" y="228.96" style="stroke: #000000; stroke-width: 0.8"/>
      </g>
     </g>
     <g id="text_13">
      <!-- 14 -->
      <g transform="translate(343.829309 241.620156) scale(0.09 -0.09)">
       <use xlink:href="#Q-04LITE-Regular-31"/>
       <use xlink:href="#Q-04LITE-Regular-34" x="55.957031"/>
      </g>
     </g>
    </g>
    <g id="xtick_14">
     <g id="line2d_27">
      <path d="M 372.458381 228.96 
L 372.458381 7.2 
" clip-path="url(#pb06fd4ca77)" style="fill: none; stroke: #b0b0b0; stroke-width: 0.8; stroke-linecap: square"/>
     </g>
     <g id="line2d_28">
      <g>
       <use xlink:href="#md99a742ba4" x="372.458381" y="228.96" style="stroke: #000000; stroke-width: 0.8"/>
      </g>
     </g>
     <g id="text_14">
      <!-- 15 -->
      <g transform="translate(367.241896 241.620156) scale(0.09 -0.09)">
       <use xlink:href="#Q-04LITE-Regular-31"/>
       <use xlink:href="#Q-04LITE-Regular-35" x="55.957031"/>
      </g>
     </g>
    </g>
    <g id="text_15">
     <!-- NUMBER OF CLUSTERS -->
     <g transform="translate(170.099219 253.170625) scale(0.1 -0.1)">
      <defs>
       <path id="Q-04LITE-Regular-4e" d="M 2816 4481 
L 3263 4481 
L 3263 0 
L 2816 0 
L 2816 447 
L 2369 447 
L 2369 1344 
L 2816 1344 
L 2816 4481 
z
M 575 0 
L 575 4481 
L 1025 4481 
L 1025 4031 
L 1472 4031 
L 1472 3138 
L 1025 3138 
L 1025 0 
L 575 0 
z
M 1472 2241 
L 1472 3138 
L 1919 3138 
L 1919 2241 
L 1472 2241 
z
M 1919 1344 
L 1919 2241 
L 2369 2241 
L 2369 1344 
L 1919 1344 
z
" transform="scale(0.015625)"/>
       <path id="Q-04LITE-Regular-55" d="M 2816 4481 
L 3263 4481 
L 3263 447 
L 2816 447 
L 2816 4481 
z
M 575 447 
L 575 4481 
L 1025 4481 
L 1025 447 
L 575 447 
z
M 1025 0 
L 1025 447 
L 2816 447 
L 2816 0 
L 1025 0 
z
" transform="scale(0.015625)"/>
       <path id="Q-04LITE-Regular-4d" d="M 575 4481 
L 1031 4481 
L 1031 4031 
L 1478 4031 
L 1478 3584 
L 1031 3584 
L 1031 0 
L 575 0 
L 575 4481 
z
M 1478 3138 
L 1478 3584 
L 2375 3584 
L 2375 3138 
L 2150 3138 
L 2150 2688 
L 1703 2688 
L 1703 3138 
L 1478 3138 
z
M 2375 3584 
L 2375 4031 
L 2822 4031 
L 2822 4481 
L 3272 4481 
L 3272 0 
L 2822 0 
L 2822 3584 
L 2375 3584 
z
" transform="scale(0.015625)"/>
       <path id="Q-04LITE-Regular-42" d="M 1025 4031 
L 1025 2688 
L 2816 2688 
L 2816 2241 
L 1025 2241 
L 1025 447 
L 2816 447 
L 2816 0 
L 575 0 
L 575 4481 
L 2816 4481 
L 2816 4031 
L 1025 4031 
z
M 2816 447 
L 2816 2241 
L 3263 2241 
L 3263 447 
L 2816 447 
z
M 2816 2688 
L 2816 4031 
L 3263 4031 
L 3263 2688 
L 2816 2688 
z
" transform="scale(0.015625)"/>
       <path id="Q-04LITE-Regular-45" d="M 1025 4031 
L 1025 2688 
L 2816 2688 
L 2816 2241 
L 1025 2241 
L 1025 447 
L 3263 447 
L 3263 0 
L 575 0 
L 575 4481 
L 3263 4481 
L 3263 4031 
L 1025 4031 
z
" transform="scale(0.015625)"/>
       <path id="Q-04LITE-Regular-52" d="M 2816 4031 
L 3263 4031 
L 3263 2688 
L 2816 2688 
L 2816 4031 
z
M 575 0 
L 575 4481 
L 2816 4481 
L 2816 4031 
L 1025 4031 
L 1025 2688 
L 2816 2688 
L 2816 2241 
L 2369 2241 
L 2369 1791 
L 1919 1791 
L 1919 2241 
L 1025 2241 
L 1025 0 
L 575 0 
z
M 2369 897 
L 2369 1791 
L 2816 1791 
L 2816 897 
L 2369 897 
z
M 2816 0 
L 2816 897 
L 3263 897 
L 3263 0 
L 2816 0 
z
" transform="scale(0.015625)"/>
       <path id="Q-04LITE-Regular-20" transform="scale(0.015625)"/>
       <path id="Q-04LITE-Regular-4f" d="M 2816 4031 
L 3263 4031 
L 3263 447 
L 2816 447 
L 2816 4031 
z
M 575 447 
L 575 4031 
L 1025 4031 
L 1025 447 
L 575 447 
z
M 1025 0 
L 1025 447 
L 2816 447 
L 2816 0 
L 1025 0 
z
M 1025 4031 
L 1025 4481 
L 2816 4481 
L 2816 4031 
L 1025 4031 
z
" transform="scale(0.015625)"/>
       <path id="Q-04LITE-Regular-46" d="M 1025 4031 
L 1025 2688 
L 2816 2688 
L 2816 2241 
L 1025 2241 
L 1025 0 
L 575 0 
L 575 4481 
L 3263 4481 
L 3263 4031 
L 1025 4031 
z
" transform="scale(0.015625)"/>
       <path id="Q-04LITE-Regular-43" d="M 1025 4031 
L 1025 4481 
L 2816 4481 
L 2816 4031 
L 1025 4031 
z
M 575 447 
L 575 4031 
L 1025 4031 
L 1025 447 
L 575 447 
z
M 1025 0 
L 1025 447 
L 2816 447 
L 2816 0 
L 1025 0 
z
M 2816 447 
L 2816 897 
L 3263 897 
L 3263 447 
L 2816 447 
z
M 2816 3584 
L 2816 4031 
L 3263 4031 
L 3263 3584 
L 2816 3584 
z
" transform="scale(0.015625)"/>
       <path id="Q-04LITE-Regular-4c" d="M 575 4481 
L 1025 4481 
L 1025 447 
L 3263 447 
L 3263 0 
L 575 0 
L 575 4481 
z
" transform="scale(0.015625)"/>
       <path id="Q-04LITE-Regular-53" d="M 2816 3584 
L 2816 4031 
L 3263 4031 
L 3263 3584 
L 2816 3584 
z
M 575 447 
L 575 897 
L 1025 897 
L 1025 447 
L 575 447 
z
M 575 2688 
L 575 4031 
L 1025 4031 
L 1025 2688 
L 575 2688 
z
M 1025 0 
L 1025 447 
L 2816 447 
L 2816 0 
L 1025 0 
z
M 1025 2241 
L 1025 2688 
L 2816 2688 
L 2816 2241 
L 1025 2241 
z
M 1025 4031 
L 1025 4481 
L 2816 4481 
L 2816 4031 
L 1025 4031 
z
M 2816 447 
L 2816 2241 
L 3263 2241 
L 3263 447 
L 2816 447 
z
" transform="scale(0.015625)"/>
       <path id="Q-04LITE-Regular-54" d="M 2081 4031 
L 2081 0 
L 1631 0 
L 1631 4031 
L 513 4031 
L 513 4481 
L 3200 4481 
L 3200 4031 
L 2081 4031 
z
" transform="scale(0.015625)"/>
      </defs>
      <use xlink:href="#Q-04LITE-Regular-4e"/>
      <use xlink:href="#Q-04LITE-Regular-55" x="59.960938"/>
      <use xlink:href="#Q-04LITE-Regular-4d" x="119.921875"/>
      <use xlink:href="#Q-04LITE-Regular-42" x="179.980469"/>
      <use xlink:href="#Q-04LITE-Regular-45" x="239.941406"/>
      <use xlink:href="#Q-04LITE-Regular-52" x="299.902344"/>
      <use xlink:href="#Q-04LITE-Regular-20" x="359.863281"/>
      <use xlink:href="#Q-04LITE-Regular-4f" x="384.863281"/>
      <use xlink:href="#Q-04LITE-Regular-46" x="444.824219"/>
      <use xlink:href="#Q-04LITE-Regular-20" x="502.783203"/>
      <use xlink:href="#Q-04LITE-Regular-43" x="527.783203"/>
      <use xlink:href="#Q-04LITE-Regular-4c" x="587.744141"/>
      <use xlink:href="#Q-04LITE-Regular-55" x="645.703125"/>
      <use xlink:href="#Q-04LITE-Regular-53" x="705.664062"/>
      <use xlink:href="#Q-04LITE-Regular-54" x="765.625"/>
      <use xlink:href="#Q-04LITE-Regular-45" x="823.583984"/>
      <use xlink:href="#Q-04LITE-Regular-52" x="883.544922"/>
      <use xlink:href="#Q-04LITE-Regular-53" x="943.505859"/>
     </g>
    </g>
   </g>
   <g id="matplotlib.axis_2">
    <g id="ytick_1">
     <g id="line2d_29">
      <path d="M 52.876563 225.600965 
L 387.676563 225.600965 
" clip-path="url(#pb06fd4ca77)" style="fill: none; stroke: #b0b0b0; stroke-width: 0.8; stroke-linecap: square"/>
     </g>
     <g id="line2d_30">
      <defs>
       <path id="m57b0fac735" d="M 0 0 
L -3.5 0 
" style="stroke: #000000; stroke-width: 0.8"/>
      </defs>
      <g>
       <use xlink:href="#m57b0fac735" x="52.876563" y="225.600965" style="stroke: #000000; stroke-width: 0.8"/>
      </g>
     </g>
     <g id="text_16">
      <!-- 20000 -->
      <g transform="translate(18.890625 228.431044) scale(0.09 -0.09)">
       <use xlink:href="#Q-04LITE-Regular-32"/>
       <use xlink:href="#Q-04LITE-Regular-30" x="59.960938"/>
       <use xlink:href="#Q-04LITE-Regular-30" x="119.921875"/>
       <use xlink:href="#Q-04LITE-Regular-30" x="179.882812"/>
       <use xlink:href="#Q-04LITE-Regular-30" x="239.84375"/>
      </g>
     </g>
    </g>
    <g id="ytick_2">
     <g id="line2d_31">
      <path d="M 52.876563 196.773792 
L 387.676563 196.773792 
" clip-path="url(#pb06fd4ca77)" style="fill: none; stroke: #b0b0b0; stroke-width: 0.8; stroke-linecap: square"/>
     </g>
     <g id="line2d_32">
      <g>
       <use xlink:href="#m57b0fac735" x="52.876563" y="196.773792" style="stroke: #000000; stroke-width: 0.8"/>
      </g>
     </g>
     <g id="text_17">
      <!-- 30000 -->
      <g transform="translate(18.890625 199.60387) scale(0.09 -0.09)">
       <use xlink:href="#Q-04LITE-Regular-33"/>
       <use xlink:href="#Q-04LITE-Regular-30" x="59.960938"/>
       <use xlink:href="#Q-04LITE-Regular-30" x="119.921875"/>
       <use xlink:href="#Q-04LITE-Regular-30" x="179.882812"/>
       <use xlink:href="#Q-04LITE-Regular-30" x="239.84375"/>
      </g>
     </g>
    </g>
    <g id="ytick_3">
     <g id="line2d_33">
      <path d="M 52.876563 167.946618 
L 387.676563 167.946618 
" clip-path="url(#pb06fd4ca77)" style="fill: none; stroke: #b0b0b0; stroke-width: 0.8; stroke-linecap: square"/>
     </g>
     <g id="line2d_34">
      <g>
       <use xlink:href="#m57b0fac735" x="52.876563" y="167.946618" style="stroke: #000000; stroke-width: 0.8"/>
      </g>
     </g>
     <g id="text_18">
      <!-- 40000 -->
      <g transform="translate(18.890625 170.776697) scale(0.09 -0.09)">
       <use xlink:href="#Q-04LITE-Regular-34"/>
       <use xlink:href="#Q-04LITE-Regular-30" x="59.960938"/>
       <use xlink:href="#Q-04LITE-Regular-30" x="119.921875"/>
       <use xlink:href="#Q-04LITE-Regular-30" x="179.882812"/>
       <use xlink:href="#Q-04LITE-Regular-30" x="239.84375"/>
      </g>
     </g>
    </g>
    <g id="ytick_4">
     <g id="line2d_35">
      <path d="M 52.876563 139.119445 
L 387.676563 139.119445 
" clip-path="url(#pb06fd4ca77)" style="fill: none; stroke: #b0b0b0; stroke-width: 0.8; stroke-linecap: square"/>
     </g>
     <g id="line2d_36">
      <g>
       <use xlink:href="#m57b0fac735" x="52.876563" y="139.119445" style="stroke: #000000; stroke-width: 0.8"/>
      </g>
     </g>
     <g id="text_19">
      <!-- 50000 -->
      <g transform="translate(18.890625 141.949523) scale(0.09 -0.09)">
       <use xlink:href="#Q-04LITE-Regular-35"/>
       <use xlink:href="#Q-04LITE-Regular-30" x="59.960938"/>
       <use xlink:href="#Q-04LITE-Regular-30" x="119.921875"/>
       <use xlink:href="#Q-04LITE-Regular-30" x="179.882812"/>
       <use xlink:href="#Q-04LITE-Regular-30" x="239.84375"/>
      </g>
     </g>
    </g>
    <g id="ytick_5">
     <g id="line2d_37">
      <path d="M 52.876563 110.292272 
L 387.676563 110.292272 
" clip-path="url(#pb06fd4ca77)" style="fill: none; stroke: #b0b0b0; stroke-width: 0.8; stroke-linecap: square"/>
     </g>
     <g id="line2d_38">
      <g>
       <use xlink:href="#m57b0fac735" x="52.876563" y="110.292272" style="stroke: #000000; stroke-width: 0.8"/>
      </g>
     </g>
     <g id="text_20">
      <!-- 60000 -->
      <g transform="translate(18.890625 113.12235) scale(0.09 -0.09)">
       <use xlink:href="#Q-04LITE-Regular-36"/>
       <use xlink:href="#Q-04LITE-Regular-30" x="59.960938"/>
       <use xlink:href="#Q-04LITE-Regular-30" x="119.921875"/>
       <use xlink:href="#Q-04LITE-Regular-30" x="179.882812"/>
       <use xlink:href="#Q-04LITE-Regular-30" x="239.84375"/>
      </g>
     </g>
    </g>
    <g id="ytick_6">
     <g id="line2d_39">
      <path d="M 52.876563 81.465098 
L 387.676563 81.465098 
" clip-path="url(#pb06fd4ca77)" style="fill: none; stroke: #b0b0b0; stroke-width: 0.8; stroke-linecap: square"/>
     </g>
     <g id="line2d_40">
      <g>
       <use xlink:href="#m57b0fac735" x="52.876563" y="81.465098" style="stroke: #000000; stroke-width: 0.8"/>
      </g>
     </g>
     <g id="text_21">
      <!-- 70000 -->
      <g transform="translate(18.890625 84.295176) scale(0.09 -0.09)">
       <use xlink:href="#Q-04LITE-Regular-37"/>
       <use xlink:href="#Q-04LITE-Regular-30" x="59.960938"/>
       <use xlink:href="#Q-04LITE-Regular-30" x="119.921875"/>
       <use xlink:href="#Q-04LITE-Regular-30" x="179.882812"/>
       <use xlink:href="#Q-04LITE-Regular-30" x="239.84375"/>
      </g>
     </g>
    </g>
    <g id="ytick_7">
     <g id="line2d_41">
      <path d="M 52.876563 52.637925 
L 387.676563 52.637925 
" clip-path="url(#pb06fd4ca77)" style="fill: none; stroke: #b0b0b0; stroke-width: 0.8; stroke-linecap: square"/>
     </g>
     <g id="line2d_42">
      <g>
       <use xlink:href="#m57b0fac735" x="52.876563" y="52.637925" style="stroke: #000000; stroke-width: 0.8"/>
      </g>
     </g>
     <g id="text_22">
      <!-- 80000 -->
      <g transform="translate(18.890625 55.468003) scale(0.09 -0.09)">
       <use xlink:href="#Q-04LITE-Regular-38"/>
       <use xlink:href="#Q-04LITE-Regular-30" x="59.960938"/>
       <use xlink:href="#Q-04LITE-Regular-30" x="119.921875"/>
       <use xlink:href="#Q-04LITE-Regular-30" x="179.882812"/>
       <use xlink:href="#Q-04LITE-Regular-30" x="239.84375"/>
      </g>
     </g>
    </g>
    <g id="ytick_8">
     <g id="line2d_43">
      <path d="M 52.876563 23.810751 
L 387.676563 23.810751 
" clip-path="url(#pb06fd4ca77)" style="fill: none; stroke: #b0b0b0; stroke-width: 0.8; stroke-linecap: square"/>
     </g>
     <g id="line2d_44">
      <g>
       <use xlink:href="#m57b0fac735" x="52.876563" y="23.810751" style="stroke: #000000; stroke-width: 0.8"/>
      </g>
     </g>
     <g id="text_23">
      <!-- 90000 -->
      <g transform="translate(18.890625 26.640829) scale(0.09 -0.09)">
       <use xlink:href="#Q-04LITE-Regular-39"/>
       <use xlink:href="#Q-04LITE-Regular-30" x="59.960938"/>
       <use xlink:href="#Q-04LITE-Regular-30" x="119.921875"/>
       <use xlink:href="#Q-04LITE-Regular-30" x="179.882812"/>
       <use xlink:href="#Q-04LITE-Regular-30" x="239.84375"/>
      </g>
     </g>
    </g>
    <g id="text_24">
     <!-- WITHIN-CLUSTER SUM OF SQUARES (WCSS) -->
     <g transform="translate(13.489063 215.78) rotate(-90) scale(0.1 -0.1)">
      <defs>
       <path id="Q-04LITE-Regular-57" d="M 575 4481 
L 1031 4481 
L 1031 897 
L 1478 897 
L 1478 447 
L 1031 447 
L 1031 0 
L 575 0 
L 575 4481 
z
M 1478 897 
L 1478 1344 
L 1703 1344 
L 1703 1791 
L 2150 1791 
L 2150 1344 
L 2375 1344 
L 2375 897 
L 1478 897 
z
M 2375 447 
L 2375 897 
L 2822 897 
L 2822 4481 
L 3272 4481 
L 3272 0 
L 2822 0 
L 2822 447 
L 2375 447 
z
" transform="scale(0.015625)"/>
       <path id="Q-04LITE-Regular-49" d="M 2016 4031 
L 2016 447 
L 3138 447 
L 3138 0 
L 447 0 
L 447 447 
L 1569 447 
L 1569 4031 
L 447 4031 
L 447 4481 
L 3138 4481 
L 3138 4031 
L 2016 4031 
z
" transform="scale(0.015625)"/>
       <path id="Q-04LITE-Regular-48" d="M 2816 4481 
L 3263 4481 
L 3263 0 
L 2816 0 
L 2816 2241 
L 1025 2241 
L 1025 0 
L 575 0 
L 575 4481 
L 1025 4481 
L 1025 2688 
L 2816 2688 
L 2816 4481 
z
" transform="scale(0.015625)"/>
       <path id="Q-04LITE-Regular-2d" d="M 575 2009 
L 575 2456 
L 2803 2456 
L 2803 2009 
L 575 2009 
z
" transform="scale(0.015625)"/>
       <path id="Q-04LITE-Regular-51" d="M 1025 4031 
L 1025 4481 
L 2816 4481 
L 2816 4031 
L 1025 4031 
z
M 575 447 
L 575 4031 
L 1025 4031 
L 1025 447 
L 575 447 
z
M 1025 0 
L 1025 447 
L 2369 447 
L 2369 0 
L 1025 0 
z
M 1919 897 
L 1919 1344 
L 2369 1344 
L 2369 897 
L 1919 897 
z
M 2369 447 
L 2369 897 
L 2816 897 
L 2816 447 
L 2369 447 
z
M 2816 0 
L 2816 447 
L 3263 447 
L 3263 0 
L 2816 0 
z
M 2816 897 
L 2816 4031 
L 3263 4031 
L 3263 897 
L 2816 897 
z
" transform="scale(0.015625)"/>
       <path id="Q-04LITE-Regular-41" d="M 1472 4031 
L 1472 4481 
L 2369 4481 
L 2369 4031 
L 1472 4031 
z
M 575 0 
L 575 3138 
L 1025 3138 
L 1025 2241 
L 2816 2241 
L 2816 3138 
L 3263 3138 
L 3263 0 
L 2816 0 
L 2816 1791 
L 1025 1791 
L 1025 0 
L 575 0 
z
M 1025 3138 
L 1025 4031 
L 1472 4031 
L 1472 3138 
L 1025 3138 
z
M 2369 3138 
L 2369 4031 
L 2816 4031 
L 2816 3138 
L 2369 3138 
z
" transform="scale(0.015625)"/>
       <path id="Q-04LITE-Regular-28" d="M 1025 4031 
L 1025 4481 
L 1919 4481 
L 1919 4031 
L 1025 4031 
z
M 575 447 
L 575 4031 
L 1025 4031 
L 1025 447 
L 575 447 
z
M 1025 0 
L 1025 447 
L 1919 447 
L 1919 0 
L 1025 0 
z
" transform="scale(0.015625)"/>
       <path id="Q-04LITE-Regular-29" d="M 575 4031 
L 575 4481 
L 1472 4481 
L 1472 4031 
L 575 4031 
z
M 575 0 
L 575 447 
L 1472 447 
L 1472 0 
L 575 0 
z
M 1472 447 
L 1472 4031 
L 1919 4031 
L 1919 447 
L 1472 447 
z
" transform="scale(0.015625)"/>
      </defs>
      <use xlink:href="#Q-04LITE-Regular-57"/>
      <use xlink:href="#Q-04LITE-Regular-49" x="60.058594"/>
      <use xlink:href="#Q-04LITE-Regular-54" x="116.015625"/>
      <use xlink:href="#Q-04LITE-Regular-48" x="173.974609"/>
      <use xlink:href="#Q-04LITE-Regular-49" x="233.935547"/>
      <use xlink:href="#Q-04LITE-Regular-4e" x="289.892578"/>
      <use xlink:href="#Q-04LITE-Regular-2d" x="349.853516"/>
      <use xlink:href="#Q-04LITE-Regular-43" x="402.636719"/>
      <use xlink:href="#Q-04LITE-Regular-4c" x="462.597656"/>
      <use xlink:href="#Q-04LITE-Regular-55" x="520.556641"/>
      <use xlink:href="#Q-04LITE-Regular-53" x="580.517578"/>
      <use xlink:href="#Q-04LITE-Regular-54" x="640.478516"/>
      <use xlink:href="#Q-04LITE-Regular-45" x="698.4375"/>
      <use xlink:href="#Q-04LITE-Regular-52" x="758.398438"/>
      <use xlink:href="#Q-04LITE-Regular-20" x="818.359375"/>
      <use xlink:href="#Q-04LITE-Regular-53" x="843.359375"/>
      <use xlink:href="#Q-04LITE-Regular-55" x="903.320312"/>
      <use xlink:href="#Q-04LITE-Regular-4d" x="963.28125"/>
      <use xlink:href="#Q-04LITE-Regular-20" x="1023.339844"/>
      <use xlink:href="#Q-04LITE-Regular-4f" x="1048.339844"/>
      <use xlink:href="#Q-04LITE-Regular-46" x="1108.300781"/>
      <use xlink:href="#Q-04LITE-Regular-20" x="1166.259766"/>
      <use xlink:href="#Q-04LITE-Regular-53" x="1191.259766"/>
      <use xlink:href="#Q-04LITE-Regular-51" x="1251.220703"/>
      <use xlink:href="#Q-04LITE-Regular-55" x="1311.181641"/>
      <use xlink:href="#Q-04LITE-Regular-41" x="1371.142578"/>
      <use xlink:href="#Q-04LITE-Regular-52" x="1431.103516"/>
      <use xlink:href="#Q-04LITE-Regular-45" x="1491.064453"/>
      <use xlink:href="#Q-04LITE-Regular-53" x="1551.025391"/>
      <use xlink:href="#Q-04LITE-Regular-20" x="1610.986328"/>
      <use xlink:href="#Q-04LITE-Regular-28" x="1635.986328"/>
      <use xlink:href="#Q-04LITE-Regular-57" x="1674.951172"/>
      <use xlink:href="#Q-04LITE-Regular-43" x="1735.009766"/>
      <use xlink:href="#Q-04LITE-Regular-53" x="1794.970703"/>
      <use xlink:href="#Q-04LITE-Regular-53" x="1854.931641"/>
      <use xlink:href="#Q-04LITE-Regular-29" x="1914.892578"/>
     </g>
    </g>
   </g>
   <g id="line2d_45">
    <path d="M 68.094744 17.28 
L 91.507332 76.918602 
L 114.919919 121.10906 
L 138.332507 147.803721 
L 161.745094 165.792226 
L 185.157681 176.897884 
L 208.570269 185.524292 
L 231.982856 190.15469 
L 255.395444 198.67169 
L 278.808031 202.588289 
L 302.220618 210.339404 
L 325.633206 212.040933 
L 349.045793 216.437804 
L 372.458381 218.88 
" clip-path="url(#pb06fd4ca77)" style="fill: none; stroke: #1f77b4; stroke-width: 1.5; stroke-linecap: square"/>
    <defs>
     <path id="m2b9c35839e" d="M 0 3 
C 0.795609 3 1.55874 2.683901 2.12132 2.12132 
C 2.683901 1.55874 3 0.795609 3 0 
C 3 -0.795609 2.683901 -1.55874 2.12132 -2.12132 
C 1.55874 -2.683901 0.795609 -3 0 -3 
C -0.795609 -3 -1.55874 -2.683901 -2.12132 -2.12132 
C -2.683901 -1.55874 -3 -0.795609 -3 0 
C -3 0.795609 -2.683901 1.55874 -2.12132 2.12132 
C -1.55874 2.683901 -0.795609 3 0 3 
z
" style="stroke: #ffffff; stroke-width: 0.75"/>
    </defs>
    <g clip-path="url(#pb06fd4ca77)">
     <use xlink:href="#m2b9c35839e" x="68.094744" y="17.28" style="fill: #1f77b4; stroke: #ffffff; stroke-width: 0.75"/>
     <use xlink:href="#m2b9c35839e" x="91.507332" y="76.918602" style="fill: #1f77b4; stroke: #ffffff; stroke-width: 0.75"/>
     <use xlink:href="#m2b9c35839e" x="114.919919" y="121.10906" style="fill: #1f77b4; stroke: #ffffff; stroke-width: 0.75"/>
     <use xlink:href="#m2b9c35839e" x="138.332507" y="147.803721" style="fill: #1f77b4; stroke: #ffffff; stroke-width: 0.75"/>
     <use xlink:href="#m2b9c35839e" x="161.745094" y="165.792226" style="fill: #1f77b4; stroke: #ffffff; stroke-width: 0.75"/>
     <use xlink:href="#m2b9c35839e" x="185.157681" y="176.897884" style="fill: #1f77b4; stroke: #ffffff; stroke-width: 0.75"/>
     <use xlink:href="#m2b9c35839e" x="208.570269" y="185.524292" style="fill: #1f77b4; stroke: #ffffff; stroke-width: 0.75"/>
     <use xlink:href="#m2b9c35839e" x="231.982856" y="190.15469" style="fill: #1f77b4; stroke: #ffffff; stroke-width: 0.75"/>
     <use xlink:href="#m2b9c35839e" x="255.395444" y="198.67169" style="fill: #1f77b4; stroke: #ffffff; stroke-width: 0.75"/>
     <use xlink:href="#m2b9c35839e" x="278.808031" y="202.588289" style="fill: #1f77b4; stroke: #ffffff; stroke-width: 0.75"/>
     <use xlink:href="#m2b9c35839e" x="302.220618" y="210.339404" style="fill: #1f77b4; stroke: #ffffff; stroke-width: 0.75"/>
     <use xlink:href="#m2b9c35839e" x="325.633206" y="212.040933" style="fill: #1f77b4; stroke: #ffffff; stroke-width: 0.75"/>
     <use xlink:href="#m2b9c35839e" x="349.045793" y="216.437804" style="fill: #1f77b4; stroke: #ffffff; stroke-width: 0.75"/>
     <use xlink:href="#m2b9c35839e" x="372.458381" y="218.88" style="fill: #1f77b4; stroke: #ffffff; stroke-width: 0.75"/>
    </g>
   </g>
   <g id="patch_3">
    <path d="M 52.876563 228.96 
L 52.876563 7.2 
" style="fill: none; stroke: #000000; stroke-width: 0.8; stroke-linejoin: miter; stroke-linecap: square"/>
   </g>
   <g id="patch_4">
    <path d="M 387.676563 228.96 
L 387.676563 7.2 
" style="fill: none; stroke: #000000; stroke-width: 0.8; stroke-linejoin: miter; stroke-linecap: square"/>
   </g>
   <g id="patch_5">
    <path d="M 52.876563 228.96 
L 387.676563 228.96 
" style="fill: none; stroke: #000000; stroke-width: 0.8; stroke-linejoin: miter; stroke-linecap: square"/>
   </g>
   <g id="patch_6">
    <path d="M 52.876563 7.2 
L 387.676563 7.2 
" style="fill: none; stroke: #000000; stroke-width: 0.8; stroke-linejoin: miter; stroke-linecap: square"/>
   </g>
   <g id="legend_1">
    <g id="patch_7">
     <path d="M 283.319063 35.0425 
L 382.076563 35.0425 
Q 383.676563 35.0425 383.676563 33.4425 
L 383.676563 12.8 
Q 383.676563 11.2 382.076563 11.2 
L 283.319063 11.2 
Q 281.719063 11.2 281.719063 12.8 
L 281.719063 33.4425 
Q 281.719063 35.0425 283.319063 35.0425 
z
" style="fill: #ffffff; opacity: 0.8; stroke: #cccccc; stroke-linejoin: miter"/>
    </g>
    <g id="line2d_46">
     <path d="M 284.919063 17.2 
L 292.919063 17.2 
L 300.919063 17.2 
" style="fill: none; stroke: #1f77b4; stroke-width: 1.5; stroke-linecap: square"/>
     <g>
      <use xlink:href="#m2b9c35839e" x="292.919063" y="17.2" style="fill: #1f77b4; stroke: #ffffff; stroke-width: 0.75"/>
     </g>
    </g>
    <g id="text_25">
     <!-- WCSS -->
     <g transform="translate(307.319063 20) scale(0.08 -0.08)">
      <use xlink:href="#Q-04LITE-Regular-57"/>
      <use xlink:href="#Q-04LITE-Regular-43" x="60.058594"/>
      <use xlink:href="#Q-04LITE-Regular-53" x="120.019531"/>
      <use xlink:href="#Q-04LITE-Regular-53" x="179.980469"/>
     </g>
    </g>
    <g id="line2d_47">
     <path d="M 284.919063 27.92125 
L 292.919063 27.92125 
L 300.919063 27.92125 
" style="fill: none; stroke: #ff7f0e; stroke-width: 1.5; stroke-linecap: square"/>
     <defs>
      <path id="ma84f947160" d="M 0 3 
C 0.795609 3 1.55874 2.683901 2.12132 2.12132 
C 2.683901 1.55874 3 0.795609 3 0 
C 3 -0.795609 2.683901 -1.55874 2.12132 -2.12132 
C 1.55874 -2.683901 0.795609 -3 0 -3 
C -0.795609 -3 -1.55874 -2.683901 -2.12132 -2.12132 
C -2.683901 -1.55874 -3 -0.795609 -3 0 
C -3 0.795609 -2.683901 1.55874 -2.12132 2.12132 
C -1.55874 2.683901 -0.795609 3 0 3 
z
" style="stroke: #ffffff; stroke-width: 0.75"/>
     </defs>
     <g>
      <use xlink:href="#ma84f947160" x="292.919063" y="27.92125" style="fill: #ff7f0e; stroke: #ffffff; stroke-width: 0.75"/>
     </g>
    </g>
    <g id="text_26">
     <!-- SILHOUETTE SCORE -->
     <g transform="translate(307.319063 30.72125) scale(0.08 -0.08)">
      <use xlink:href="#Q-04LITE-Regular-53"/>
      <use xlink:href="#Q-04LITE-Regular-49" x="59.960938"/>
      <use xlink:href="#Q-04LITE-Regular-4c" x="115.917969"/>
      <use xlink:href="#Q-04LITE-Regular-48" x="173.876953"/>
      <use xlink:href="#Q-04LITE-Regular-4f" x="233.837891"/>
      <use xlink:href="#Q-04LITE-Regular-55" x="293.798828"/>
      <use xlink:href="#Q-04LITE-Regular-45" x="353.759766"/>
      <use xlink:href="#Q-04LITE-Regular-54" x="413.720703"/>
      <use xlink:href="#Q-04LITE-Regular-54" x="471.679688"/>
      <use xlink:href="#Q-04LITE-Regular-45" x="529.638672"/>
      <use xlink:href="#Q-04LITE-Regular-20" x="589.599609"/>
      <use xlink:href="#Q-04LITE-Regular-53" x="614.599609"/>
      <use xlink:href="#Q-04LITE-Regular-43" x="674.560547"/>
      <use xlink:href="#Q-04LITE-Regular-4f" x="734.521484"/>
      <use xlink:href="#Q-04LITE-Regular-52" x="794.482422"/>
      <use xlink:href="#Q-04LITE-Regular-45" x="854.443359"/>
     </g>
    </g>
   </g>
  </g>
  <g id="axes_2">
   <g id="PolyCollection_2"/>
   <g id="matplotlib.axis_3">
    <g id="ytick_9">
     <g id="line2d_48">
      <defs>
       <path id="m3998e935ca" d="M 0 0 
L 3.5 0 
" style="stroke: #000000; stroke-width: 0.8"/>
      </defs>
      <g>
       <use xlink:href="#m3998e935ca" x="387.676563" y="228.769876" style="stroke: #000000; stroke-width: 0.8"/>
      </g>
     </g>
     <g id="text_27">
      <!-- 0.240 -->
      <g transform="translate(394.676563 231.599954) scale(0.09 -0.09)">
       <defs>
        <path id="Q-04LITE-Regular-2e" d="M 575 0 
L 575 447 
L 1025 447 
L 1025 0 
L 575 0 
z
" transform="scale(0.015625)"/>
       </defs>
       <use xlink:href="#Q-04LITE-Regular-30"/>
       <use xlink:href="#Q-04LITE-Regular-2e" x="59.960938"/>
       <use xlink:href="#Q-04LITE-Regular-32" x="84.960938"/>
       <use xlink:href="#Q-04LITE-Regular-34" x="144.921875"/>
       <use xlink:href="#Q-04LITE-Regular-30" x="204.882812"/>
      </g>
     </g>
    </g>
    <g id="ytick_10">
     <g id="line2d_49">
      <g>
       <use xlink:href="#m3998e935ca" x="387.676563" y="203.894679" style="stroke: #000000; stroke-width: 0.8"/>
      </g>
     </g>
     <g id="text_28">
      <!-- 0.245 -->
      <g transform="translate(394.676563 206.724757) scale(0.09 -0.09)">
       <use xlink:href="#Q-04LITE-Regular-30"/>
       <use xlink:href="#Q-04LITE-Regular-2e" x="59.960938"/>
       <use xlink:href="#Q-04LITE-Regular-32" x="84.960938"/>
       <use xlink:href="#Q-04LITE-Regular-34" x="144.921875"/>
       <use xlink:href="#Q-04LITE-Regular-35" x="204.882812"/>
      </g>
     </g>
    </g>
    <g id="ytick_11">
     <g id="line2d_50">
      <g>
       <use xlink:href="#m3998e935ca" x="387.676563" y="179.019482" style="stroke: #000000; stroke-width: 0.8"/>
      </g>
     </g>
     <g id="text_29">
      <!-- 0.250 -->
      <g transform="translate(394.676563 181.84956) scale(0.09 -0.09)">
       <use xlink:href="#Q-04LITE-Regular-30"/>
       <use xlink:href="#Q-04LITE-Regular-2e" x="59.960938"/>
       <use xlink:href="#Q-04LITE-Regular-32" x="84.960938"/>
       <use xlink:href="#Q-04LITE-Regular-35" x="144.921875"/>
       <use xlink:href="#Q-04LITE-Regular-30" x="204.882812"/>
      </g>
     </g>
    </g>
    <g id="ytick_12">
     <g id="line2d_51">
      <g>
       <use xlink:href="#m3998e935ca" x="387.676563" y="154.144285" style="stroke: #000000; stroke-width: 0.8"/>
      </g>
     </g>
     <g id="text_30">
      <!-- 0.255 -->
      <g transform="translate(394.676563 156.974363) scale(0.09 -0.09)">
       <use xlink:href="#Q-04LITE-Regular-30"/>
       <use xlink:href="#Q-04LITE-Regular-2e" x="59.960938"/>
       <use xlink:href="#Q-04LITE-Regular-32" x="84.960938"/>
       <use xlink:href="#Q-04LITE-Regular-35" x="144.921875"/>
       <use xlink:href="#Q-04LITE-Regular-35" x="204.882812"/>
      </g>
     </g>
    </g>
    <g id="ytick_13">
     <g id="line2d_52">
      <g>
       <use xlink:href="#m3998e935ca" x="387.676563" y="129.269088" style="stroke: #000000; stroke-width: 0.8"/>
      </g>
     </g>
     <g id="text_31">
      <!-- 0.260 -->
      <g transform="translate(394.676563 132.099166) scale(0.09 -0.09)">
       <use xlink:href="#Q-04LITE-Regular-30"/>
       <use xlink:href="#Q-04LITE-Regular-2e" x="59.960938"/>
       <use xlink:href="#Q-04LITE-Regular-32" x="84.960938"/>
       <use xlink:href="#Q-04LITE-Regular-36" x="144.921875"/>
       <use xlink:href="#Q-04LITE-Regular-30" x="204.882812"/>
      </g>
     </g>
    </g>
    <g id="ytick_14">
     <g id="line2d_53">
      <g>
       <use xlink:href="#m3998e935ca" x="387.676563" y="104.393891" style="stroke: #000000; stroke-width: 0.8"/>
      </g>
     </g>
     <g id="text_32">
      <!-- 0.265 -->
      <g transform="translate(394.676563 107.223969) scale(0.09 -0.09)">
       <use xlink:href="#Q-04LITE-Regular-30"/>
       <use xlink:href="#Q-04LITE-Regular-2e" x="59.960938"/>
       <use xlink:href="#Q-04LITE-Regular-32" x="84.960938"/>
       <use xlink:href="#Q-04LITE-Regular-36" x="144.921875"/>
       <use xlink:href="#Q-04LITE-Regular-35" x="204.882812"/>
      </g>
     </g>
    </g>
    <g id="ytick_15">
     <g id="line2d_54">
      <g>
       <use xlink:href="#m3998e935ca" x="387.676563" y="79.518694" style="stroke: #000000; stroke-width: 0.8"/>
      </g>
     </g>
     <g id="text_33">
      <!-- 0.270 -->
      <g transform="translate(394.676563 82.348772) scale(0.09 -0.09)">
       <use xlink:href="#Q-04LITE-Regular-30"/>
       <use xlink:href="#Q-04LITE-Regular-2e" x="59.960938"/>
       <use xlink:href="#Q-04LITE-Regular-32" x="84.960938"/>
       <use xlink:href="#Q-04LITE-Regular-37" x="144.921875"/>
       <use xlink:href="#Q-04LITE-Regular-30" x="204.882812"/>
      </g>
     </g>
    </g>
    <g id="ytick_16">
     <g id="line2d_55">
      <g>
       <use xlink:href="#m3998e935ca" x="387.676563" y="54.643497" style="stroke: #000000; stroke-width: 0.8"/>
      </g>
     </g>
     <g id="text_34">
      <!-- 0.275 -->
      <g transform="translate(394.676563 57.473575) scale(0.09 -0.09)">
       <use xlink:href="#Q-04LITE-Regular-30"/>
       <use xlink:href="#Q-04LITE-Regular-2e" x="59.960938"/>
       <use xlink:href="#Q-04LITE-Regular-32" x="84.960938"/>
       <use xlink:href="#Q-04LITE-Regular-37" x="144.921875"/>
       <use xlink:href="#Q-04LITE-Regular-35" x="204.882812"/>
      </g>
     </g>
    </g>
    <g id="ytick_17">
     <g id="line2d_56">
      <g>
       <use xlink:href="#m3998e935ca" x="387.676563" y="29.7683" style="stroke: #000000; stroke-width: 0.8"/>
      </g>
     </g>
     <g id="text_35">
      <!-- 0.280 -->
      <g transform="translate(394.676563 32.598378) scale(0.09 -0.09)">
       <use xlink:href="#Q-04LITE-Regular-30"/>
       <use xlink:href="#Q-04LITE-Regular-2e" x="59.960938"/>
       <use xlink:href="#Q-04LITE-Regular-32" x="84.960938"/>
       <use xlink:href="#Q-04LITE-Regular-38" x="144.921875"/>
       <use xlink:href="#Q-04LITE-Regular-30" x="204.882812"/>
      </g>
     </g>
    </g>
    <g id="text_36">
     <!-- SILHOUETTE SCORE -->
     <g transform="translate(428.804375 163.803438) rotate(-90) scale(0.1 -0.1)">
      <use xlink:href="#Q-04LITE-Regular-53"/>
      <use xlink:href="#Q-04LITE-Regular-49" x="59.960938"/>
      <use xlink:href="#Q-04LITE-Regular-4c" x="115.917969"/>
      <use xlink:href="#Q-04LITE-Regular-48" x="173.876953"/>
      <use xlink:href="#Q-04LITE-Regular-4f" x="233.837891"/>
      <use xlink:href="#Q-04LITE-Regular-55" x="293.798828"/>
      <use xlink:href="#Q-04LITE-Regular-45" x="353.759766"/>
      <use xlink:href="#Q-04LITE-Regular-54" x="413.720703"/>
      <use xlink:href="#Q-04LITE-Regular-54" x="471.679688"/>
      <use xlink:href="#Q-04LITE-Regular-45" x="529.638672"/>
      <use xlink:href="#Q-04LITE-Regular-20" x="589.599609"/>
      <use xlink:href="#Q-04LITE-Regular-53" x="614.599609"/>
      <use xlink:href="#Q-04LITE-Regular-43" x="674.560547"/>
      <use xlink:href="#Q-04LITE-Regular-4f" x="734.521484"/>
      <use xlink:href="#Q-04LITE-Regular-52" x="794.482422"/>
      <use xlink:href="#Q-04LITE-Regular-45" x="854.443359"/>
     </g>
    </g>
   </g>
   <g id="line2d_57">
    <path d="M 68.094744 218.88 
L 91.507332 159.277485 
L 114.919919 51.016394 
L 138.332507 17.28 
L 161.745094 25.908885 
L 185.157681 79.665129 
L 208.570269 92.661982 
L 231.982856 194.91052 
L 255.395444 127.631222 
L 278.808031 169.204455 
L 302.220618 103.610515 
L 325.633206 189.299995 
L 349.045793 111.733363 
L 372.458381 143.936224 
" clip-path="url(#pb06fd4ca77)" style="fill: none; stroke: #ff7f0e; stroke-width: 1.5; stroke-linecap: square"/>
    <g clip-path="url(#pb06fd4ca77)">
     <use xlink:href="#ma84f947160" x="68.094744" y="218.88" style="fill: #ff7f0e; stroke: #ffffff; stroke-width: 0.75"/>
     <use xlink:href="#ma84f947160" x="91.507332" y="159.277485" style="fill: #ff7f0e; stroke: #ffffff; stroke-width: 0.75"/>
     <use xlink:href="#ma84f947160" x="114.919919" y="51.016394" style="fill: #ff7f0e; stroke: #ffffff; stroke-width: 0.75"/>
     <use xlink:href="#ma84f947160" x="138.332507" y="17.28" style="fill: #ff7f0e; stroke: #ffffff; stroke-width: 0.75"/>
     <use xlink:href="#ma84f947160" x="161.745094" y="25.908885" style="fill: #ff7f0e; stroke: #ffffff; stroke-width: 0.75"/>
     <use xlink:href="#ma84f947160" x="185.157681" y="79.665129" style="fill: #ff7f0e; stroke: #ffffff; stroke-width: 0.75"/>
     <use xlink:href="#ma84f947160" x="208.570269" y="92.661982" style="fill: #ff7f0e; stroke: #ffffff; stroke-width: 0.75"/>
     <use xlink:href="#ma84f947160" x="231.982856" y="194.91052" style="fill: #ff7f0e; stroke: #ffffff; stroke-width: 0.75"/>
     <use xlink:href="#ma84f947160" x="255.395444" y="127.631222" style="fill: #ff7f0e; stroke: #ffffff; stroke-width: 0.75"/>
     <use xlink:href="#ma84f947160" x="278.808031" y="169.204455" style="fill: #ff7f0e; stroke: #ffffff; stroke-width: 0.75"/>
     <use xlink:href="#ma84f947160" x="302.220618" y="103.610515" style="fill: #ff7f0e; stroke: #ffffff; stroke-width: 0.75"/>
     <use xlink:href="#ma84f947160" x="325.633206" y="189.299995" style="fill: #ff7f0e; stroke: #ffffff; stroke-width: 0.75"/>
     <use xlink:href="#ma84f947160" x="349.045793" y="111.733363" style="fill: #ff7f0e; stroke: #ffffff; stroke-width: 0.75"/>
     <use xlink:href="#ma84f947160" x="372.458381" y="143.936224" style="fill: #ff7f0e; stroke: #ffffff; stroke-width: 0.75"/>
    </g>
   </g>
   <g id="patch_8">
    <path d="M 52.876563 228.96 
L 52.876563 7.2 
" style="fill: none; stroke: #000000; stroke-width: 0.8; stroke-linejoin: miter; stroke-linecap: square"/>
   </g>
   <g id="patch_9">
    <path d="M 387.676563 228.96 
L 387.676563 7.2 
" style="fill: none; stroke: #000000; stroke-width: 0.8; stroke-linejoin: miter; stroke-linecap: square"/>
   </g>
   <g id="patch_10">
    <path d="M 52.876563 228.96 
L 387.676563 228.96 
" style="fill: none; stroke: #000000; stroke-width: 0.8; stroke-linejoin: miter; stroke-linecap: square"/>
   </g>
   <g id="patch_11">
    <path d="M 52.876563 7.2 
L 387.676563 7.2 
" style="fill: none; stroke: #000000; stroke-width: 0.8; stroke-linejoin: miter; stroke-linecap: square"/>
   </g>
  </g>
 </g>
 <defs>
  <clipPath id="pb06fd4ca77">
   <rect x="52.876563" y="7.2" width="334.8" height="221.76"/>
  </clipPath>
 </defs>
</svg>
